<svg width="11" height="12" viewBox="0 0 11 12" fill="none" xmlns="http://www.w3.org/2000/svg">
<path d="M10.0835 7.92041L10.0835 4.07957C10.0835 2.41124 9.08891 1.41666 7.42058 1.41666L3.58433 1.41666C1.91141 1.41666 0.916828 2.41124 0.916828 4.07957L0.916828 7.91582C0.916828 9.58416 1.91141 10.5787 3.57974 10.5787L7.42058 10.5787C9.08891 10.5833 10.0835 9.58874 10.0835 7.92041ZM4.12516 6.82041C3.99225 6.95332 3.77225 6.95332 3.63933 6.82041C3.57058 6.75166 3.53849 6.66457 3.53849 6.57749C3.53849 6.49041 3.57058 6.40332 3.63933 6.33457L5.25725 4.71666C5.39016 4.58374 5.61016 4.58374 5.74308 4.71666L7.361 6.33457C7.49391 6.46749 7.49391 6.68749 7.361 6.82041C7.22808 6.95332 7.00808 6.95332 6.87516 6.82041L5.50016 5.44541L4.12516 6.82041Z" fill="#F5C51C"/>
</svg>
