<svg width="191" height="60" viewBox="0 0 191 60" fill="none" xmlns="http://www.w3.org/2000/svg">
<rect width="191" height="60" rx="12" fill="#001127"/>
<g clip-path="url(#clip0_0_300)">
<path d="M107.5 30C107.5 23.3726 102.127 18 95.5 18C88.8726 18 83.5 23.3726 83.5 30C83.5 35.6275 87.3746 40.3498 92.6013 41.6467V33.6672H90.1269V30H92.6013V28.4198C92.6013 24.3355 94.4498 22.4424 98.4597 22.4424C99.22 22.4424 100.532 22.5917 101.068 22.7405V26.0645C100.785 26.0347 100.293 26.0198 99.6822 26.0198C97.7147 26.0198 96.9544 26.7653 96.9544 28.703V30H100.874L100.201 33.6672H96.9544V41.9122C102.896 41.1946 107.5 36.1354 107.5 30H107.5Z" fill="#0866FF"/>
<path d="M100.2 33.6672L100.874 30H96.954V28.703C96.954 26.7653 97.7143 26.0198 99.6818 26.0198C100.293 26.0198 100.785 26.0347 101.068 26.0645V22.7405C100.531 22.5912 99.2196 22.4424 98.4593 22.4424C94.4493 22.4424 92.6009 24.3355 92.6009 28.4198V30H90.1265V33.6672H92.6009V41.6467C93.5292 41.8771 94.5002 42 95.4996 42C95.9916 42 96.4769 41.9697 96.9535 41.9121V33.6672H100.2H100.2Z" fill="white"/>
</g>
<defs>
<clipPath id="clip0_0_300">
<rect width="24" height="24" fill="white" transform="translate(83.5 18)"/>
</clipPath>
</defs>
</svg>
