<svg width="81" height="50" viewBox="0 0 81 50" fill="none" xmlns="http://www.w3.org/2000/svg">
<rect x="0.5" width="80" height="50" rx="12" fill="#F5C61C"/>
<path d="M29.091 30H20.926V20.486H23.5956V27.6002H29.091V30ZM33.7628 30.142C31.2778 30.142 29.588 28.7362 29.588 26.4216C29.588 24.0928 31.2778 22.7012 33.7628 22.7012C36.2478 22.7012 37.9376 24.0928 37.9376 26.4216C37.9376 28.7362 36.2478 30.142 33.7628 30.142ZM33.7628 27.7848C34.9698 27.7848 35.2964 27.4582 35.2964 26.4216C35.2964 25.385 34.9698 25.0442 33.7628 25.0442C32.5558 25.0442 32.2292 25.385 32.2292 26.4216C32.2292 27.4582 32.5558 27.7848 33.7628 27.7848ZM41.7597 29.2048C39.6297 29.2048 38.4369 27.9836 38.4369 25.9388C38.4369 23.9224 39.7149 22.7012 41.8307 22.7012C43.2791 22.7012 44.2447 23.2834 44.4435 24.5188H44.5855V22.8432H47.0847V28.793C47.0847 31.349 45.5653 32.556 42.8105 32.556C40.3113 32.556 38.8629 31.5052 38.8629 29.6308H41.5325C41.5325 30.213 41.6035 30.355 42.9951 30.355C44.1453 30.355 44.4151 30.1846 44.4151 28.9776V27.4724H44.2731C44.0885 28.509 43.3359 29.2048 41.7597 29.2048ZM41.1349 25.9388C41.1349 26.6488 41.4757 26.9186 42.7253 26.9186C43.9181 26.9186 44.4151 26.7766 44.4151 26.024V25.9246C44.4151 25.1578 43.9181 25.0016 42.7253 25.0016C41.4757 25.0016 41.1349 25.243 41.1349 25.9388ZM50.6089 22.19H47.9393V20.486H50.6089V22.19ZM50.6089 30H47.9393V22.8432H50.6089V30ZM54.1311 30H51.4615V22.8432H53.9607V25.0158H54.1027C54.2589 23.823 55.0399 22.7012 56.9569 22.7012C58.8881 22.7012 59.7969 23.8656 59.7969 25.4134V30H57.1273V26.3932C57.1273 25.3992 56.7581 25.0868 55.5937 25.0868C54.4151 25.0868 54.1311 25.385 54.1311 26.308V30Z" fill="white"/>
</svg>
