<svg width="88" height="17" viewBox="0 0 88 17" fill="none" xmlns="http://www.w3.org/2000/svg">
<path d="M20.9142 0.419588V17H15.8088V10.6058H5.94479V17H0.789739V0.419588H5.94479V6.29337H15.8088V0.419588H20.9142Z" fill="white"/>
<path d="M21.8425 0.419588H40.4304L37.1093 4.73198H26.9975V6.88818H39.4886L36.3658 10.928H26.9975V17H21.8425V0.419588ZM45.0727 12.7372H57.9108L54.5897 17H39.9424V0.419588H45.0727V12.7372ZM62.5936 0.419588V17H57.4633V0.419588H62.5936ZM80.4594 0.419588H87.1015L81.8721 5.20288C79.5672 7.28472 78.7989 7.95389 78.1793 8.42478C78.7741 8.82132 79.5176 9.51527 82.1943 12.0184L87.4981 17H80.2612L74.6104 11.5228L68.7862 17H62.4168L67.8197 12.0184C70.3476 9.68876 71.0663 9.09394 71.6859 8.62305C71.0663 8.17694 70.422 7.60691 67.8197 5.17809L62.739 0.419588H69.8519L75.1309 5.57463L80.4594 0.419588Z" fill="#F5C61C"/>
</svg>
