<svg width="154" height="40" viewBox="0 0 154 40" fill="none" xmlns="http://www.w3.org/2000/svg">
<path d="M141.373 6.1588H152.644L143.77 14.2759C139.859 17.8088 138.555 18.9444 137.504 19.7435C138.513 20.4164 139.775 21.594 144.317 25.8418L153.317 34.2954H141.036L131.447 25.0007L121.564 34.2954H110.755L119.923 25.8418C124.213 21.8884 125.433 20.879 126.484 20.0799C125.433 19.3229 124.34 18.3555 119.923 14.2339L111.302 6.1588H123.372L132.33 14.9068L141.373 6.1588Z" fill="#F5C61C"/>
<path d="M111.055 6.1588V34.2954H102.349V6.1588H111.055Z" fill="#F5C61C"/>
<path d="M81.3225 27.0615H103.108L97.4726 34.2954H72.6165V6.1588H81.3225V27.0615Z" fill="#F5C61C"/>
<path d="M41.9012 6.1588H73.4445L67.8088 13.4768H50.6492V17.1359H71.8463L66.5471 23.9913H50.6492V34.2954H41.9012V6.1588Z" fill="#F5C61C"/>
<path d="M8.4849 10.152V30.4445L0 40V0L8.4849 10.152ZM33.9396 40L25.2459 34.5461V24.6692L13.5758 28.6216V12.4257L25.2459 17.4172V6.66694L33.9396 0V40Z" fill="white"/>
</svg>
