<svg width="394" height="14" viewBox="0 0 394 14" fill="none" xmlns="http://www.w3.org/2000/svg">
<path d="M173 7.25L0 6.75" stroke="#686B6E"/>
<path d="M194.024 13.192C193.16 13.192 192.355 13.0373 191.608 12.728C190.872 12.4187 190.221 11.9867 189.656 11.432C189.101 10.8773 188.664 10.2267 188.344 9.48C188.035 8.73333 187.88 7.91733 187.88 7.032C187.88 6.14667 188.035 5.33067 188.344 4.584C188.664 3.82667 189.101 3.176 189.656 2.632C190.211 2.07733 190.861 1.65067 191.608 1.352C192.355 1.04267 193.16 0.888 194.024 0.888C194.899 0.888 195.704 1.04267 196.44 1.352C197.187 1.65067 197.837 2.07733 198.392 2.632C198.957 3.18667 199.395 3.83733 199.704 4.584C200.013 5.33067 200.168 6.14667 200.168 7.032C200.168 7.91733 200.008 8.73333 199.688 9.48C199.379 10.2267 198.947 10.8773 198.392 11.432C197.837 11.9867 197.187 12.4187 196.44 12.728C195.693 13.0373 194.888 13.192 194.024 13.192ZM194.024 11.464C194.643 11.464 195.208 11.352 195.72 11.128C196.243 10.904 196.696 10.5947 197.08 10.2C197.464 9.79467 197.763 9.32533 197.976 8.792C198.189 8.248 198.296 7.66133 198.296 7.032C198.296 6.40267 198.189 5.82133 197.976 5.288C197.763 4.75467 197.464 4.28533 197.08 3.88C196.696 3.47467 196.243 3.16 195.72 2.936C195.208 2.712 194.643 2.6 194.024 2.6C193.405 2.6 192.835 2.712 192.312 2.936C191.8 3.16 191.352 3.47467 190.968 3.88C190.584 4.28533 190.285 4.75467 190.072 5.288C189.869 5.82133 189.768 6.40267 189.768 7.032C189.768 7.66133 189.869 8.248 190.072 8.792C190.285 9.32533 190.584 9.79467 190.968 10.2C191.352 10.5947 191.805 10.904 192.328 11.128C192.851 11.352 193.416 11.464 194.024 11.464ZM202.253 13V4.344H203.981V6.088L203.821 5.832C204.013 5.26667 204.322 4.86133 204.749 4.616C205.176 4.36 205.688 4.232 206.285 4.232H206.813V5.88H206.061C205.464 5.88 204.978 6.06667 204.605 6.44C204.242 6.80267 204.061 7.32533 204.061 8.008V13H202.253Z" fill="#686B6E"/>
<path d="M394 7.25L221 6.75" stroke="#686B6E"/>
</svg>
