<svg width="144" height="48" viewBox="0 0 144 48" fill="none" xmlns="http://www.w3.org/2000/svg">
<rect width="144" height="48" rx="8" fill="#F5C61C"/>
<path d="M53.625 20.9205C53.5644 20.3826 53.3144 19.9659 52.875 19.6705C52.4356 19.3712 51.8826 19.2216 51.2159 19.2216C50.7386 19.2216 50.3258 19.2973 49.9773 19.4489C49.6288 19.5966 49.358 19.8011 49.1648 20.0625C48.9754 20.3201 48.8807 20.6136 48.8807 20.9432C48.8807 21.2197 48.9451 21.4583 49.0739 21.6591C49.2064 21.8598 49.3788 22.0284 49.5909 22.1648C49.8068 22.2973 50.0379 22.4091 50.2841 22.5C50.5303 22.5871 50.767 22.6591 50.9943 22.7159L52.1307 23.0114C52.5019 23.1023 52.8826 23.2254 53.2727 23.3807C53.6629 23.536 54.0246 23.7405 54.358 23.9943C54.6913 24.2481 54.9602 24.5625 55.1648 24.9375C55.3731 25.3125 55.4773 25.7614 55.4773 26.2841C55.4773 26.9432 55.3068 27.5284 54.9659 28.0398C54.6288 28.5511 54.1383 28.9545 53.4943 29.25C52.8542 29.5455 52.0795 29.6932 51.1705 29.6932C50.2992 29.6932 49.5455 29.5549 48.9091 29.2784C48.2727 29.0019 47.7746 28.6098 47.4148 28.1023C47.0549 27.5909 46.8561 26.9848 46.8182 26.2841H48.5795C48.6136 26.7045 48.75 27.0549 48.9886 27.3352C49.2311 27.6117 49.5398 27.8182 49.9148 27.9545C50.2936 28.0871 50.7083 28.1534 51.1591 28.1534C51.6553 28.1534 52.0966 28.0758 52.483 27.9205C52.8731 27.7614 53.1799 27.5417 53.4034 27.2614C53.6269 26.9773 53.7386 26.6458 53.7386 26.267C53.7386 25.9223 53.6402 25.6402 53.4432 25.4205C53.25 25.2008 52.9867 25.0189 52.6534 24.875C52.3239 24.7311 51.9508 24.6042 51.5341 24.4943L50.1591 24.1193C49.2273 23.8655 48.4886 23.4924 47.9432 23C47.4015 22.5076 47.1307 21.8561 47.1307 21.0455C47.1307 20.375 47.3125 19.7898 47.6761 19.2898C48.0398 18.7898 48.5322 18.4015 49.1534 18.125C49.7746 17.8447 50.4754 17.7045 51.2557 17.7045C52.0436 17.7045 52.7386 17.8428 53.3409 18.1193C53.947 18.3958 54.4242 18.7765 54.7727 19.2614C55.1212 19.7424 55.303 20.2955 55.3182 20.9205H53.625ZM57.4389 29.5V20.7727H59.1378V29.5H57.4389ZM58.2969 19.4261C58.0014 19.4261 57.7476 19.3277 57.5355 19.1307C57.3272 18.9299 57.223 18.6913 57.223 18.4148C57.223 18.1345 57.3272 17.8958 57.5355 17.6989C57.7476 17.4981 58.0014 17.3977 58.2969 17.3977C58.5923 17.3977 58.8442 17.4981 59.0526 17.6989C59.2647 17.8958 59.3707 18.1345 59.3707 18.4148C59.3707 18.6913 59.2647 18.9299 59.0526 19.1307C58.8442 19.3277 58.5923 19.4261 58.2969 19.4261ZM65.0824 32.9545C64.3892 32.9545 63.7926 32.8636 63.2926 32.6818C62.7964 32.5 62.3911 32.2595 62.0767 31.9602C61.7623 31.661 61.5275 31.3333 61.3722 30.9773L62.8324 30.375C62.9347 30.5417 63.071 30.7178 63.2415 30.9034C63.4157 31.0928 63.6506 31.2538 63.946 31.3864C64.2453 31.5189 64.6297 31.5852 65.0994 31.5852C65.7434 31.5852 66.2756 31.428 66.696 31.1136C67.1165 30.803 67.3267 30.3068 67.3267 29.625V27.9091H67.2188C67.1165 28.0947 66.9688 28.3011 66.7756 28.5284C66.5862 28.7557 66.3248 28.9527 65.9915 29.1193C65.6581 29.286 65.2244 29.3693 64.6903 29.3693C64.0009 29.3693 63.3797 29.2083 62.8267 28.8864C62.2775 28.5606 61.8419 28.0814 61.5199 27.4489C61.2017 26.8125 61.0426 26.0303 61.0426 25.1023C61.0426 24.1742 61.1998 23.3788 61.5142 22.7159C61.8324 22.053 62.268 21.5455 62.821 21.1932C63.3741 20.8371 64.0009 20.6591 64.7017 20.6591C65.2434 20.6591 65.6809 20.75 66.0142 20.9318C66.3475 21.1098 66.607 21.3182 66.7926 21.5568C66.982 21.7955 67.1278 22.0057 67.2301 22.1875H67.3551V20.7727H69.0199V29.6932C69.0199 30.4432 68.8456 31.0587 68.4972 31.5398C68.1487 32.0208 67.6771 32.3769 67.0824 32.608C66.4915 32.839 65.8248 32.9545 65.0824 32.9545ZM65.0653 27.9602C65.554 27.9602 65.9669 27.8466 66.304 27.6193C66.6449 27.3883 66.9025 27.0587 67.0767 26.6307C67.2547 26.1989 67.3438 25.6818 67.3438 25.0795C67.3438 24.4924 67.2566 23.9754 67.0824 23.5284C66.9081 23.0814 66.6525 22.733 66.3153 22.483C65.9782 22.2292 65.5616 22.1023 65.0653 22.1023C64.554 22.1023 64.1278 22.2348 63.7869 22.5C63.446 22.7614 63.1884 23.1174 63.0142 23.5682C62.8438 24.0189 62.7585 24.5227 62.7585 25.0795C62.7585 25.6515 62.8456 26.1534 63.0199 26.5852C63.1941 27.017 63.4517 27.3542 63.7926 27.5966C64.1373 27.839 64.5616 27.9602 65.0653 27.9602ZM72.9972 24.3182V29.5H71.2983V20.7727H72.929V22.1932H73.0369C73.2377 21.7311 73.5521 21.3598 73.9801 21.0795C74.4119 20.7992 74.9555 20.6591 75.6108 20.6591C76.2055 20.6591 76.7263 20.7841 77.1733 21.0341C77.6203 21.2803 77.9669 21.6477 78.2131 22.1364C78.4593 22.625 78.5824 23.2292 78.5824 23.9489V29.5H76.8835V24.1534C76.8835 23.5208 76.7188 23.0265 76.3892 22.6705C76.0597 22.3106 75.607 22.1307 75.0312 22.1307C74.6373 22.1307 74.2869 22.2159 73.9801 22.3864C73.6771 22.5568 73.4366 22.8068 73.2585 23.1364C73.0843 23.4621 72.9972 23.8561 72.9972 24.3182ZM86.9872 17.8636V29.5H85.2315V17.8636H86.9872ZM91.1065 24.3182V29.5H89.4077V20.7727H91.0384V22.1932H91.1463C91.3471 21.7311 91.6615 21.3598 92.0895 21.0795C92.5213 20.7992 93.0649 20.6591 93.7202 20.6591C94.3149 20.6591 94.8357 20.7841 95.2827 21.0341C95.7296 21.2803 96.0762 21.6477 96.3224 22.1364C96.5687 22.625 96.6918 23.2292 96.6918 23.9489V29.5H94.9929V24.1534C94.9929 23.5208 94.8281 23.0265 94.4986 22.6705C94.169 22.3106 93.7164 22.1307 93.1406 22.1307C92.7467 22.1307 92.3963 22.2159 92.0895 22.3864C91.7865 22.5568 91.5459 22.8068 91.3679 23.1364C91.1937 23.4621 91.1065 23.8561 91.1065 24.3182Z" fill="#2E2E2E"/>
</svg>
