<svg width="50" height="19" viewBox="0 0 50 19" fill="none" xmlns="http://www.w3.org/2000/svg">
<rect width="50" height="19" rx="9.5" fill="#F5C51C"/>
<path d="M5.42614 6.79403V5.27273H12.5938V6.79403H9.92188V14H8.09801V6.79403H5.42614ZM15.7482 14.1278C15.0863 14.1278 14.5138 13.9872 14.0309 13.706C13.5508 13.4219 13.18 13.027 12.9187 12.5213C12.6573 12.0128 12.5266 11.4233 12.5266 10.7528C12.5266 10.0767 12.6573 9.4858 12.9187 8.98011C13.18 8.47159 13.5508 8.0767 14.0309 7.79545C14.5138 7.51136 15.0863 7.36932 15.7482 7.36932C16.4102 7.36932 16.9812 7.51136 17.4613 7.79545C17.9442 8.0767 18.3164 8.47159 18.5778 8.98011C18.8391 9.4858 18.9698 10.0767 18.9698 10.7528C18.9698 11.4233 18.8391 12.0128 18.5778 12.5213C18.3164 13.027 17.9442 13.4219 17.4613 13.706C16.9812 13.9872 16.4102 14.1278 15.7482 14.1278ZM15.7567 12.7216C16.0579 12.7216 16.3093 12.6364 16.511 12.4659C16.7127 12.2926 16.8647 12.0568 16.967 11.7585C17.0721 11.4602 17.1246 11.1207 17.1246 10.7401C17.1246 10.3594 17.0721 10.0199 16.967 9.72159C16.8647 9.4233 16.7127 9.1875 16.511 9.0142C16.3093 8.84091 16.0579 8.75426 15.7567 8.75426C15.4528 8.75426 15.1971 8.84091 14.9897 9.0142C14.7852 9.1875 14.6303 9.4233 14.5252 9.72159C14.4229 10.0199 14.3718 10.3594 14.3718 10.7401C14.3718 11.1207 14.4229 11.4602 14.5252 11.7585C14.6303 12.0568 14.7852 12.2926 14.9897 12.4659C15.1971 12.6364 15.4528 12.7216 15.7567 12.7216ZM20.1502 16.4545V7.45455H21.94V8.55398H22.021C22.1005 8.37784 22.2156 8.19886 22.3661 8.01705C22.5195 7.83239 22.7184 7.67898 22.9627 7.55682C23.2099 7.43182 23.5167 7.36932 23.8832 7.36932C24.3604 7.36932 24.8008 7.49432 25.2042 7.74432C25.6076 7.99148 25.93 8.36506 26.1715 8.86506C26.413 9.36222 26.5337 9.9858 26.5337 10.7358C26.5337 11.4659 26.4158 12.0824 26.18 12.5852C25.9471 13.0852 25.6289 13.4645 25.2255 13.723C24.8249 13.9787 24.3761 14.1065 23.8789 14.1065C23.5266 14.1065 23.2269 14.0483 22.9798 13.9318C22.7354 13.8153 22.5352 13.669 22.3789 13.4929C22.2227 13.3139 22.1033 13.1335 22.021 12.9517H21.9656V16.4545H20.1502ZM21.9272 10.7273C21.9272 11.1165 21.9812 11.456 22.0891 11.7457C22.1971 12.0355 22.3533 12.2614 22.5579 12.4233C22.7624 12.5824 23.011 12.6619 23.3036 12.6619C23.5991 12.6619 23.8491 12.581 24.0536 12.419C24.2582 12.2543 24.413 12.027 24.5181 11.7372C24.6261 11.4446 24.68 11.108 24.68 10.7273C24.68 10.3494 24.6275 10.017 24.5224 9.73011C24.4173 9.44318 24.2624 9.21875 24.0579 9.05682C23.8533 8.89489 23.6019 8.81392 23.3036 8.81392C23.0082 8.81392 22.7582 8.89205 22.5536 9.0483C22.3519 9.20455 22.1971 9.42614 22.0891 9.71307C21.9812 10 21.9272 10.3381 21.9272 10.7273ZM34.7188 11.2131V7.45455H36.5341V14H34.7912V12.8111H34.723C34.5753 13.1946 34.3295 13.5028 33.9858 13.7358C33.6449 13.9687 33.2287 14.0852 32.7372 14.0852C32.2997 14.0852 31.9148 13.9858 31.5824 13.7869C31.25 13.5881 30.9901 13.3054 30.8026 12.9389C30.6179 12.5724 30.5241 12.1335 30.5213 11.6222V7.45455H32.3366V11.2983C32.3395 11.6847 32.4432 11.9901 32.6477 12.2145C32.8523 12.4389 33.1264 12.5511 33.4702 12.5511C33.6889 12.5511 33.8935 12.5014 34.0838 12.402C34.2741 12.2997 34.4276 12.1491 34.544 11.9503C34.6634 11.7514 34.7216 11.5057 34.7188 11.2131ZM37.9862 16.4545V7.45455H39.7759V8.55398H39.8569C39.9364 8.37784 40.0515 8.19886 40.2021 8.01705C40.3555 7.83239 40.5543 7.67898 40.7987 7.55682C41.0458 7.43182 41.3526 7.36932 41.7191 7.36932C42.1964 7.36932 42.6367 7.49432 43.0401 7.74432C43.4435 7.99148 43.766 8.36506 44.0075 8.86506C44.2489 9.36222 44.3697 9.9858 44.3697 10.7358C44.3697 11.4659 44.2518 12.0824 44.016 12.5852C43.783 13.0852 43.4648 13.4645 43.0614 13.723C42.6609 13.9787 42.212 14.1065 41.7148 14.1065C41.3626 14.1065 41.0629 14.0483 40.8157 13.9318C40.5714 13.8153 40.3711 13.669 40.2148 13.4929C40.0586 13.3139 39.9393 13.1335 39.8569 12.9517H39.8015V16.4545H37.9862ZM39.7631 10.7273C39.7631 11.1165 39.8171 11.456 39.9251 11.7457C40.033 12.0355 40.1893 12.2614 40.3938 12.4233C40.5984 12.5824 40.8469 12.6619 41.1396 12.6619C41.435 12.6619 41.685 12.581 41.8896 12.419C42.0941 12.2543 42.2489 12.027 42.354 11.7372C42.462 11.4446 42.516 11.108 42.516 10.7273C42.516 10.3494 42.4634 10.017 42.3583 9.73011C42.2532 9.44318 42.0984 9.21875 41.8938 9.05682C41.6893 8.89489 41.4379 8.81392 41.1396 8.81392C40.8441 8.81392 40.5941 8.89205 40.3896 9.0483C40.1879 9.20455 40.033 9.42614 39.9251 9.71307C39.8171 10 39.7631 10.3381 39.7631 10.7273Z" fill="white"/>
</svg>
